<?xml version="1.0" encoding="utf-8"?>
<!-- Generator: Adobe Illustrator 26.0.3, SVG Export Plug-In . SVG Version: 6.00 Build 0)  -->
<svg version="1.1" id="Capa_1" xmlns="http://www.w3.org/2000/svg" xmlns:xlink="http://www.w3.org/1999/xlink" x="0px" y="0px"
	 viewBox="0 0 1080 158" style="enable-background:new 0 0 1080 158;" xml:space="preserve">
<style type="text/css">
	.st0{fill:#F4F3EF;}
	.st1{fill:#FA5510;}
</style>
<g>
	<g>
		<path class="st0" d="M38.484,76.4798c1.8549-3.1373,4.2576-5.6987,7.2056-7.6859c2.9456-1.9856,6.5969-2.9785,10.9531-2.9785
			c11.6564,0,18.3816,5.7019,20.1772,17.1025h26.7107c-0.3849-6.4044-1.9215-11.9443-4.612-16.6229
			c-2.6906-4.6754-6.1823-8.5809-10.4727-11.7214c-4.2937-3.1372-9.1607-5.4774-14.6044-7.0139
			c-5.4469-1.5382-11.1151-2.3064-17.0063-2.3064c-8.0709,0-15.2468,1.3457-21.5221,4.0354
			c-6.2785,2.6898-11.5955,6.4381-15.9493,11.2418c-4.357,4.8037-7.6563,10.5056-9.8961,17.1025
			c-2.0921,6.1563-3.1946,12.788-3.3349,19.8885h27.2737c0.0377-3.525,0.409-7.0805,1.1384-10.6644
			C35.3131,83.0799,36.6251,79.6202,38.484,76.4798z"/>
		<path class="st0" d="M147.8218,79.9394c2.114-2.8838,4.8999-5.1566,8.3588-6.823c3.4588-1.6633,7.6867-2.4973,12.6829-2.4973
			c1.6633,0,3.3931,0.0962,5.1886,0.2887c1.7924,0.1909,3.3297,0.417,4.6113,0.672V46.214
			c-2.1797-0.6384-4.1646-0.9607-5.9569-0.9607c-3.4588,0-6.7918,0.5133-9.9924,1.5382c-3.2038,1.0265-6.2151,2.4668-9.0316,4.3225
			c-2.8189,1.8589-5.317,4.1012-7.4943,6.7268c-2.1797,2.6272-3.9087,5.4758-5.1879,8.5505h-0.3849V47.9446h-25.9416v49.5769
			h27.5055c0.2117-2.6149,0.5732-5.1232,1.1268-7.4951C144.201,86.1834,145.7078,82.8216,147.8218,79.9394z"/>
		<path class="st0" d="M266.8656,59.5697c-4.4861-4.5455-9.8961-8.0709-16.238-10.5698c-6.341-2.4973-13.4207-3.7467-21.2334-3.7467
			c-7.8159,0-14.8626,1.2494-21.1379,3.7467c-6.2785,2.4989-11.6588,6.0243-16.1418,10.5698
			c-4.4853,4.5487-7.9442,10.0581-10.3765,16.5251c-2.4147,6.4189-3.6278,13.5611-3.6475,21.4267h27.2883
			c0.0122-3.9034,0.3918-7.7483,1.1484-11.5305c0.7683-3.843,2.0803-7.2352,3.9392-10.1832
			c1.8549-2.9464,4.3233-5.3474,7.398-7.2064c3.0747-1.8557,6.9177-2.786,11.5297-2.786s8.4847,0.9303,11.6259,2.786
			c3.1373,1.8589,5.6353,4.26,7.4943,7.2064c1.8549,2.948,3.1701,6.3403,3.9392,10.1832c0.7558,3.7822,1.1356,7.6271,1.148,11.5305
			h27.2881c-0.0197-7.8656-1.235-15.0078-3.6477-21.4267C274.8074,69.6279,271.3486,64.1184,266.8656,59.5697z"/>
		<path class="st0" d="M443.6534,64.3735c-1.7956-4.5455-4.2936-8.2297-7.4943-11.0494c-3.2038-2.8165-7.0468-4.8663-11.5297-6.1494
			c-4.4861-1.2783-9.3532-1.9215-14.6044-1.9215c-6.9177,0-12.9083,1.6665-17.967,4.9962
			c-5.0627,3.3329-9.0645,7.1759-12.0101,11.5305c-2.6906-6.1494-6.6298-10.4399-11.8184-12.8746
			c-5.1878-2.4331-10.9226-3.6521-17.1979-3.6521c-6.5335,0-12.3317,1.4114-17.3904,4.2279
			c-5.0627,2.8197-9.3861,6.791-12.9708,11.9139h-0.3849V47.9446h-25.7492v49.5769h27.2865v-7.8784
			c0-4.8679,0.7025-8.8071,2.114-11.8176c1.4082-3.0089,3.1044-5.3154,5.0924-6.9177c1.9848-1.6007,4.0354-2.6914,6.1494-3.2672
			c2.1132-0.5774,3.8101-0.8645,5.0916-0.8645c4.3538,0,7.6539,0.7378,9.8969,2.2086c2.2398,1.4756,3.843,3.4292,4.8037,5.8623
			c0.9607,2.4347,1.5045,5.0924,1.6336,7.9746c0.1259,2.8822,0.1917,5.7965,0.1917,8.7429v5.9569h27.2874v-5.572
			c0-3.0747,0.2221-6.1173,0.672-9.1279c0.4475-3.0089,1.3457-5.6987,2.6906-8.0709c1.3449-2.369,3.2006-4.2905,5.5728-5.7661
			c2.369-1.4708,5.4766-2.2086,9.3195-2.2086c3.8438,0,6.8848,0.6416,9.1279,1.9215c2.2399,1.2815,3.9392,3.0105,5.0924,5.1887
			c1.1532,2.1797,1.8557,4.7396,2.114,7.6859c0.255,2.948,0.3842,6.0852,0.3842,9.4166v6.5327h27.2865V80.8039
			C446.3432,74.3995,445.4458,68.9221,443.6534,64.3735z"/>
		<path class="st0" d="M548.1867,58.9923c-2.6898-3.6505-6.1494-6.4991-10.3765-8.5505c-4.2279-2.0482-8.9058-3.426-14.0278-4.1317
			c-5.1253-0.7025-10.1848-1.057-15.181-1.057c-5.5094,0-10.986,0.5469-16.4297,1.6344
			c-5.4469,1.0891-10.3468,2.9143-14.7007,5.4758c-4.3562,2.5647-7.9442,5.9569-10.7606,10.1848
			c-2.8197,4.2279-4.4196,9.5449-4.8037,15.9493h27.2865c0.5108-5.3811,2.3056-9.2241,5.3803-11.5289
			c3.0747-2.3064,7.3026-3.4596,12.6829-3.4596c2.4323,0,4.7083,0.162,6.8214,0.4796c2.114,0.3224,3.9697,0.9623,5.5728,1.9231
			c1.6007,0.9607,2.8822,2.3048,3.843,4.0354c0.9615,1.729,1.4419,4.0675,1.4419,7.0139c0.1259,2.8181-0.7057,4.9657-2.498,6.4365
			c-1.7956,1.474-4.2279,2.5935-7.3026,3.3634c-3.0747,0.7683-6.5993,1.3441-10.569,1.729
			c-3.9721,0.3849-8.0075,0.8982-12.1055,1.5365c-4.102,0.6432-8.1671,1.5077-12.2025,2.5951
			c-4.0354,1.0891-7.6234,2.7234-10.7614,4.8999h82.7257V73.5013C552.2222,67.4818,550.8773,62.6444,548.1867,58.9923z"/>
		<polygon class="st0" points="623.1278,66.1987 623.1278,47.9446 603.1431,47.9446 603.1431,18.1583 575.8566,18.1583 
			575.8566,47.9446 559.3307,47.9446 559.3307,66.1987 575.8566,66.1987 575.8566,97.5215 603.1431,97.5215 603.1431,66.1987 		"/>
		<rect x="632.1594" y="47.9446" class="st0" width="27.2873" height="49.5769"/>
		<path class="st0" d="M701.5286,86.8571c0.7699-3.7772,2.0819-7.2368,3.9392-10.3773c1.8557-3.1373,4.2584-5.6987,7.2064-7.6859
			c2.9464-1.9856,6.5969-2.9785,10.9531-2.9785c11.6556,0,18.3824,5.7019,20.1772,17.1025h26.7099
			c-0.3833-6.4044-1.9214-11.9443-4.6112-16.6229c-2.6898-4.6754-6.1815-8.5809-10.4736-11.7214
			c-4.2936-3.1372-9.1599-5.4774-14.6036-7.0139c-5.4469-1.5382-11.1151-2.3064-17.0063-2.3064
			c-8.0709,0-15.2468,1.3457-21.5212,4.0354c-6.2793,2.6898-11.5963,6.4381-15.9509,11.2418
			c-4.3563,4.8037-7.6555,10.5056-9.8962,17.1025c-2.0915,6.1563-3.1929,12.788-3.3333,19.8885h27.2721
			C700.4279,93.9965,700.8,90.441,701.5286,86.8571z"/>
		<circle class="st0" cx="645.8296" cy="22.1602" r="14.2327"/>
		<path class="st0" d="M77.7205,123.9443c-3.5246,3.6505-8.5505,5.4758-15.084,5.4758c-4.2279,0-7.8159-0.9607-10.7614-2.8822
			c-2.9488-1.9215-5.2841-4.3867-7.0139-7.3988c-0.3416-0.5943-0.6496-1.2135-0.9539-1.8355h-28.388
			c0.253,0.748,0.5193,1.4892,0.806,2.2204c2.4323,6.2152,5.8278,11.5626,10.1848,16.0455
			c4.3538,4.4861,9.6379,7.9746,15.8531,10.4719c6.2119,2.4989,13.0342,3.7483,20.4651,3.7483
			c13.193,0,24.0202-3.4596,32.4752-10.3773c6.6338-5.4277,11.1853-12.8163,13.719-22.1089H82.1116
			C80.9937,119.8462,79.5341,122.0638,77.7205,123.9443z"/>
		<rect x="121.2434" y="117.3036" class="st0" width="27.2873" height="29.9873"/>
		<path class="st0" d="M255.0842,119.524c-1.8589,3.0121-4.357,5.4132-7.4943,7.2064c-3.1413,1.7948-7.0139,2.6898-11.6259,2.6898
			c-4.612,0-8.455-0.895-11.5297-2.6898c-3.0747-1.7932-5.5431-4.1942-7.398-7.2064c-0.4431-0.7171-0.8505-1.4595-1.2314-2.2204
			h-28.1751c0.2169,0.6495,0.4371,1.2973,0.678,1.9317c2.4323,6.4076,5.8912,11.885,10.3765,16.4305
			c4.4829,4.5487,9.8632,8.0404,16.1418,10.4719c6.2753,2.4331,13.3221,3.6521,21.1379,3.6521
			c7.8126,0,14.8923-1.219,21.2334-3.6521c6.3419-2.4315,11.7519-5.9232,16.238-10.4719
			c4.4829-4.5455,7.9417-10.0229,10.3765-16.4305c0.241-0.6344,0.4607-1.2822,0.6776-1.9317H256.314
			C255.933,118.0645,255.5264,118.8068,255.0842,119.524z"/>
		<rect x="363.3658" y="117.3036" class="st0" width="27.2873" height="29.9873"/>
		<rect x="301.106" y="117.3036" class="st0" width="27.2865" height="29.9873"/>
		<rect x="425.6263" y="117.3036" class="st0" width="27.2865" height="29.9873"/>
		<path class="st0" d="M528.4306,122.5987c-1.4114,2.4973-3.588,4.6449-6.5335,6.4365c-2.9488,1.7964-7.1102,2.6914-12.4905,2.6914
			c-2.1797,0-4.2937-0.1925-6.3419-0.5774c-2.0506-0.3833-3.843-1.057-5.3803-2.0177c-1.5374-0.9607-2.7563-2.2727-3.6513-3.9392
			c-0.8974-1.6633-1.3449-3.7131-1.3449-6.1494c0-0.6062,0.0293-1.1832,0.0794-1.7392h-27.2613
			c-0.0621,0.9368-0.1046,1.8934-0.1046,2.8925c0,5.1261,0.8645,9.5449,2.5943,13.2595c1.729,3.7179,4.1309,6.7926,7.2056,9.2241
			c3.0747,2.4347,6.6594,4.2279,10.7614,5.3795c4.098,1.1532,8.5176,1.7306,13.2587,1.7306c6.1494,0,12.1697-0.8982,18.0633-2.6914
			c5.8912-1.7916,11.0164-4.9288,15.3727-9.415c0.1267,1.6665,0.3513,3.2992,0.6729,4.8999
			c0.3184,1.6039,0.7354,3.1709,1.2486,4.7075h27.6715c-1.2823-2.0466-2.1797-5.1213-2.6898-9.2241
			c-0.5141-4.098-0.7691-8.3885-0.7691-12.8746v-7.8886H530.573C530.1199,119.0839,529.4166,120.8488,528.4306,122.5987z"/>
		<path class="st0" d="M582.4263,124.8089c0,4.9962,0.8316,9.0316,2.498,12.1063c1.6633,3.0747,3.9392,5.4453,6.8215,7.1102
			c2.8822,1.6649,6.2119,2.786,9.9923,3.3618c3.7772,0.5774,7.7822,0.8645,12.0101,0.8645c2.6898,0,5.4437-0.0658,8.2633-0.1925
			c2.8165-0.1283,5.3795-0.3833,7.686-0.7683v-21.138c-1.2816,0.2582-2.6272,0.4507-4.0355,0.5774
			c-1.4114,0.1283-2.8822,0.1925-4.4188,0.1925c-4.6129,0-7.6876-0.7699-9.2241-2.3064c-1.3136-1.3137-2.0606-3.7571-2.2523-7.3128
			h-27.3406V124.8089z"/>
		<rect x="638.7291" y="117.3036" class="st0" width="27.2873" height="29.9873"/>
		<path class="st0" d="M749.0962,117.3036c-1.1179,2.5426-2.5767,4.7602-4.3903,6.6408c-3.5254,3.6505-8.552,5.4758-15.0848,5.4758
			c-4.2279,0-7.8159-0.9607-10.7606-2.8822c-2.9496-1.9215-5.2849-4.3867-7.0139-7.3988c-0.342-0.5943-0.65-1.2135-0.9543-1.8355
			h-28.3884c0.253,0.748,0.5193,1.4892,0.806,2.2204c2.4315,6.2152,5.8286,11.5626,10.1848,16.0455
			c4.353,4.4861,9.6379,7.9746,15.8531,10.4719c6.2119,2.4989,13.0333,3.7483,20.4659,3.7483
			c13.1921,0,24.0201-3.4596,32.4744-10.3773c6.6346-5.4277,11.1852-12.8163,13.7186-22.1089H749.0962z"/>
		<g>
			<path class="st1" d="M49.3265,109.0504c-0.7691-3.7131-1.1532-7.3652-1.1532-10.9531c0-0.1915,0.0128-0.3841,0.0148-0.5758
				H20.9144c-0.0104,0.5118-0.0285,1.0198-0.0285,1.5366c0,6.5577,0.9503,12.638,2.8453,18.2455h28.388
				C50.8843,114.7776,49.9428,112.0337,49.3265,109.0504z"/>
			<path class="st1" d="M92.5623,109.2429c-0.4351,2.9829-1.1857,5.6656-2.2387,8.0607h26.9108
				c0.6953-2.551,1.2675-5.2182,1.6544-8.0607H92.5623z"/>
			<path class="st1" d="M156.9609,97.5215h-27.5055v19.7821h27.2873v-14.7859C156.7428,100.8005,156.8294,99.145,156.9609,97.5215z"
				/>
			<path class="st1" d="M295.6715,97.5215h-27.2881c0,0.0644,0.0044,0.1281,0.0044,0.1925c0,3.9713-0.3841,7.8479-1.1524,11.6252
				c-0.5858,2.8794-1.4928,5.5323-2.7094,7.9644h28.1755c1.9748-5.9071,2.9736-12.4323,2.9736-19.5896
				C295.6751,97.649,295.6715,97.5864,295.6715,97.5215z"/>
			<path class="st1" d="M221.309,109.3391c-0.7691-3.7772-1.1532-7.6539-1.1532-11.6252c0-0.0644,0.0044-0.1281,0.0048-0.1925
				h-27.2885c0,0.0649-0.0036,0.1275-0.0036,0.1925c0,7.1573,0.9968,13.6825,2.9733,19.5896h28.1751
				C222.7994,114.8714,221.894,112.2186,221.309,109.3391z"/>
			<rect x="371.5778" y="97.5215" class="st1" width="27.2873" height="19.782"/>
			<rect x="309.318" y="97.5215" class="st1" width="27.2865" height="19.782"/>
			<rect x="433.8384" y="97.5215" class="st1" width="27.2865" height="19.782"/>
			<path class="st1" d="M484.2781,97.5215c-3.1404,2.1797-5.7011,5.0924-7.6859,8.7429c-1.6356,3.0045-2.5847,6.6924-2.8738,11.0391
				h27.2613c0.162-1.7925,0.5806-3.3291,1.2655-4.601c0.895-1.6633,2.0811-3.0426,3.5551-4.1317
				c1.4716-1.0875,3.2006-1.952,5.1886-2.5935c1.9848-0.64,4.0026-1.1532,6.0532-1.5381c2.1765-0.3849,4.3538-0.7025,6.5335-0.9607
				c2.1765-0.255,4.2576-0.5758,6.2448-0.9607c1.9849-0.3849,3.8438-0.8645,5.5728-1.4419
				c1.7298-0.5758,3.1709-1.3746,4.3242-2.4011v10.1848c0,1.5365-0.1628,3.588-0.4804,6.1494
				c-0.0966,0.7683-0.2578,1.5324-0.4519,2.2946h28.2188V97.5215H484.2781z"/>
			<path class="st1" d="M617.9248,97.5215h-27.2866v19.7821h27.3407c-0.0329-0.6077-0.0541-1.238-0.0541-1.9113V97.5215z"/>
			<rect x="646.9412" y="97.5215" class="st1" width="27.2873" height="19.782"/>
			<path class="st1" d="M785.8735,109.2429h-26.3266c-0.4359,2.9829-1.1861,5.6656-2.2386,8.0607h26.9104
				C784.9143,114.7525,785.4865,112.0853,785.8735,109.2429z"/>
			<path class="st1" d="M716.3102,109.0504c-0.7682-3.7131-1.1532-7.3652-1.1532-10.9531c0-0.1915,0.0132-0.3841,0.0148-0.5758
				h-27.2721c-0.0104,0.5118-0.0284,1.0198-0.0284,1.5366c0,6.5577,0.9495,12.638,2.8445,18.2455h28.3884
				C717.8685,114.7776,716.9282,112.0337,716.3102,109.0504z"/>
		</g>
	</g>
	<g>
		<path class="st0" d="M823.9079,82.9353v65.7168h-8.9412V82.9353h-12.4915V75.413h12.4915v-6.6712
			c0-3.1225,0.2349-6.0069,0.7095-8.658c0.4714-2.648,1.3707-4.9179,2.6962-6.8128c1.324-1.8918,3.1443-3.3574,5.4655-4.3998
			c2.3166-1.0393,5.2726-1.5605,8.8696-1.5605c1.324,0,2.5562,0.0482,3.6904,0.1416c1.1357,0.0949,2.413,0.2365,3.8335,0.4263
			v7.6638c-1.2322-0.1883-2.3664-0.3547-3.4072-0.4963c-1.0424-0.1431-2.0817-0.2131-3.1224-0.2131
			c-2.4613,0-4.3531,0.3796-5.6771,1.1357c-1.3271,0.7577-2.2963,1.7736-2.9094,3.0509c-0.6176,1.2773-0.9724,2.7678-1.0657,4.4714
			c-0.0949,1.7036-0.1416,3.5488-0.1416,5.5355v6.3865h14.4782v7.5223H823.9079z"/>
		<path class="st0" d="M855.9837,47.3107v14.3351h-8.9427V47.3107H855.9837z M855.9837,75.413v73.2391h-8.9427V75.413H855.9837z"/>
		<path class="st0" d="M882.2409,47.3107V148.652h-8.9427V47.3107H882.2409z"/>
		<path class="st0" d="M907.6454,75.413v12.3483h0.4263c2.3633-4.5414,5.464-8.0901,9.2959-10.6447
			c3.8335-2.5546,8.7296-3.8319,14.6913-3.8319c4.8261,0,9.201,1.184,13.1294,3.5488c3.9252,2.3648,6.5499,5.9603,7.877,10.7863
			c2.175-4.8261,5.394-8.4215,9.6506-10.7863c4.2582-2.3648,8.8011-3.5488,13.6272-3.5488c16.1802,0,24.2704,8.5647,24.2704,25.6893
			v49.6781h-8.9427V99.4002c0-6.0536-1.2773-10.6665-3.8319-13.8388c-2.5546-3.1692-7.0493-4.7545-13.4841-4.7545
			c-3.8801,0-7.0959,0.7343-9.6506,2.1999c-2.5546,1.4687-4.5911,3.4305-6.1034,5.8902c-1.5153,2.4613-2.5795,5.2757-3.194,8.4449
			c-0.6161,3.1723-0.9226,6.4581-0.9226,9.8653v41.4448h-8.9411V98.9739c0-2.4582-0.2629-4.8012-0.7811-7.0244
			c-0.5212-2.2232-1.3722-4.1633-2.5546-5.8202c-1.184-1.6538-2.7678-2.956-4.7545-3.9035
			c-1.9883-0.9444-4.4014-1.4189-7.2391-1.4189c-3.7868,0-7.0742,0.6877-9.8653,2.0583c-2.7911,1.3722-5.0626,3.2641-6.8128,5.6771
			c-1.7518,2.413-3.0509,5.2524-3.9035,8.5164c-0.851,3.2641-1.2773,6.8377-1.2773,10.7163v40.877h-8.9412V75.413H907.6454z"/>
		<path class="st0" d="M1059.7991,89.6781c-1.0424-2.0334-2.4364-3.7121-4.1866-5.0392c-1.7518-1.324-3.762-2.2932-6.0319-2.9093
			c-2.2714-0.6145-4.6844-0.9226-7.239-0.9226c-1.9868,0-3.9984,0.2131-6.0319,0.6379c-2.0365,0.4263-3.9034,1.1357-5.6071,2.1299
			c-1.7036,0.9941-3.0758,2.2948-4.1167,3.9035c-1.0424,1.6102-1.5604,3.597-1.5604,5.9603c0,1.9883,0.4963,3.6686,1.4905,5.0392
			c0.9926,1.3722,2.2466,2.5328,3.7604,3.4772c1.5122,0.9475,3.1691,1.7285,4.9677,2.343c1.7969,0.6161,3.4539,1.1124,4.9677,1.4889
			l11.9236,2.6977c2.5546,0.3796,5.0844,1.0642,7.5939,2.0583c2.5048,0.9926,4.7296,2.2948,6.6697,3.9035
			c1.9385,1.6087,3.5238,3.597,4.756,5.9603c1.2275,2.3664,1.8452,5.159,1.8452,8.3748c0,3.9735-0.9008,7.3574-2.6978,10.1485
			c-1.7985,2.7911-4.0933,5.0626-6.8828,6.8128c-2.7927,1.7518-5.9401,3.0027-9.4391,3.7604
			c-3.5021,0.7561-6.9559,1.1357-10.3616,1.1357c-8.6113,0-15.5906-2.0334-20.9363-6.1034
			c-5.3457-4.0668-8.3982-10.5965-9.1543-19.5859h8.9427c0.3765,6.0567,2.5764,10.623,6.5997,13.6957
			c4.0201,3.0758,9.0127,4.6129,14.9745,4.6129c2.175,0,4.4216-0.2349,6.7413-0.7094c2.3181-0.473,4.4713-1.2773,6.4581-2.413
			c1.9867-1.1357,3.6188-2.5764,4.896-4.3282c1.2789-1.7503,1.9167-3.9035,1.9167-6.4581c0-2.1766-0.4496-3.9968-1.3489-5.4655
			c-0.8992-1.4656-2.1064-2.6962-3.6188-3.6903c-1.5153-0.9926-3.2422-1.8203-5.1808-2.4831
			c-1.9401-0.6612-3.9034-1.2291-5.8903-1.7036l-11.4973-2.5546c-2.9326-0.7561-5.6304-1.632-8.0901-2.6262
			c-2.4613-0.9926-4.6129-2.2217-6.4581-3.6903c-1.8452-1.4656-3.2889-3.2641-4.3282-5.3939
			c-1.0424-2.1283-1.562-4.7545-1.562-7.877c0-3.6903,0.8276-6.8595,2.4846-9.509c1.6538-2.648,3.8071-4.7778,6.4581-6.3881
			c2.6479-1.6071,5.6055-2.7895,8.8711-3.5472c3.2642-0.7561,6.5049-1.1357,9.7222-1.1357c3.6904,0,7.1194,0.4745,10.29,1.4189
			c3.1692,0.9475,5.9618,2.413,8.3749,4.3998s4.3282,4.4496,5.7487,7.3807c1.4188,2.9342,2.2217,6.3881,2.4115,10.3616h-8.9412
			C1061.4077,94.1028,1060.84,91.7131,1059.7991,89.6781z"/>
	</g>
</g>
</svg>
